<svg xmlns="http://www.w3.org/2000/svg" viewBox="0 0 512000 512000"><path d="m124269-261 3561-12 9677-4 10479-14 20489-12 16669-4 2403-2 4835-4 45268-3 41325-25 42526-24L345340-380l20296-1 10335-5C389629-423 402705-410 416000 3000l2700 685a93000 93000 0 01 6113 1878l2230 761c32313 11576 58490 35383 73395 66176 7724 16584 11888 33431 11823 51769l12 3561 4 9677 14 10479 12 20489 4 16669 2 2403 4 4835 3 45268 25 41325 24 42526 15 23838v20296l6 10335c38 13659 25 26735-3385 40030l-685 2700a93000 93000 0 01-1878 6113l-761 2230c-11576 32313-35383 58491-66176 73395-16584 7724-33431 11888-51770 11823l-3560 12-9677 4c-3493-2-6986 7-10480 14l-20488 12q-8334-2-16670 4l-2402 2-4835 4-45268 3c-13775-5-27550 6-41325 25l-42526 24q-11920-4-23838 15h-20296q-5167-10-10335 6c-13660 38-26735 25-40030-3385l-2700-685a93000 93000 0 01-6113-1878l-2230-761C52645 494100 26467 470294 11563 439500 3838 422916-325 406070-260 387730l-14-3561-4-9680-14-10480-12-20490-4-16670-2-2405-4-4835-3-45268-25-41326-24-42527-15-23837V146360l-6-10335C-423 122370-410 109295 3000 96000l685-2700a93000 93000 0 01 1878-6113l761-2230C17899 52645 41706 26467 72500 11562 89084 3838 105931-325 124270-261" fill="#1964cb"/><path d="M334125 191199c4523 3301 8066 6372 9875 11801a68000 68000 0 01 140 4255l17 2629 3 2876 15 3036 27 9965 17 6925 20 14534 58 18598 25 14312 24 6855 9 9607 28 2845c-41 6535-890 12233-4927 17621-4268 3579-7800 5385-13457 4941-5803-1060-9180-3686-12871-8184-2005-3226-2254-6416-2270-10154l-16-2608-3-2837-15-3007-27-9851-17-6853-20-14375-58-18393-25-14160-24-6780-9-9498-28-2812c41-6480 819-12350 5068-17546l1754-1380 1746-1433c4414-2744 10332-3531 14940-930zM190000 191000c4641 2452 8951 5686 10597 10885 420 2201 535 4212 544 6452l17 2608 3 2837 26 3007 27 9840 18 6854 20 14375 58 18393 25 14160 24 6780 10 9498 27 2812c-42 6505-910 12185-4927 17546-4268 3580-7800 5385-13457 4940-5850-1070-9194-3711-12870-8280-1946-2962-2257-5530-2270-8974l-16-2630-4-2876-16-3037-27-9965-17-6926-20-14534-58-18598-25-14312-23-6855-9-9608-28-2845c41-6505 777-12440 5103-17620l1781-1380 1780-1434c4433-2913 8773-2220 13720-1130zm70000-1000c5383 2304 9565 5552 12000 11000 584 3521 557 6997 533 10560l26 3185 7 10403 20 7248-10 15186 41 19435 12 14968 21 7164-20 10030 35 2973c-89 6462-1427 10880-5667 15846-3847 3370-6934 4300-12062 4000-5772-885-9257-3041-13068-7485-2548-4792-2438-8728-2403-14076l-26-3185-7-10403-19-7248 10-15186-42-19435-12-14968-20-7164 20-10030-36-2973c90-6443 1402-10913 5667-15846 4340-3743 9364-5235 15000-4000" fill="#fefefe"/><path d="m166250 123438 3122-118c6340-22 10109 890 14999 4998 3517 3633 5241 6342 5685 11535-120 4699-1524 8449-4676 11949-4360 3930-7692 5282-13574 5375-15628 341-15628 341-28742 8200-4712 5177-7094 10705-7273 17671l-86 2313-133 4734c-252 6257-1255 11817-5113 16965-4268 3580-7800 5385-13457 4941-5803-1060-9179-3686-12870-8184-5129-8250-2556-24515-974-33625 1591-6016 4170-11583 6844-17190h2000l563-2000c5951-12420 19556-20092 31887-24970 7124-2246 14389-2434 21801-2594zM123000 300000c5492 3000 9992 6975 12000 13000 100 1352 154 2707 176 4063 273 15449 273 15449 7262 28875L145000 348000l2375 2188c6325 4368 13463 4159 20865 4291 6204 217 11761 1274 16818 5064 3580 4268 5385 7800 4941 13457-1069 5849-3712 9194-8280 12871-7900 5189-24660 2533-33563 973-5999-1604-11560-4176-17156-6844v-2000l-2000-562c-10646-5101-18782-16629-23000-27437l-1125-2867c-2514-7418-3261-14212-3312-22008l-30-2665c86-6480 882-12360 5187-17510l1781-1380 1781-1432c3873-2544 8242-2981 12720-2130zm275000 0c4809 2627 9927 6446 11571 11890 3576 17568-1300 36173-10571 51110-6501 9261-16444 16881-27000 21000l-2867 1125c-7418 2514-14212 3261-22008 3313l-2665 30c-6508-86-12165-998-17519-5011-3579-4268-5385-7800-4941-13457 1069-5850 3712-9194 8281-12871 2885-1895 5424-2252 8781-2305 15449-273 15449-273 28875-7262L370000 345000l2188-2375c4368-6325 4159-13463 4291-20865 217-6205 1163-11934 5240-16818l1781-1379 1781-1434c3873-2544 8242-2981 12719-2130m-20625-169311c14857 7707 24688 20293 30594 35867 2045 6683 2336 13259 2406 20195l42 2689c-47 6570-905 12209-4960 17620-4268 3579-7800 5385-13457 4940-5849-1068-9194-3711-12871-8280-1953-2973-2254-5580-2305-9035-181-15345-181-15345-7262-28560L367000 164000l-2375-2187c-6325-4368-13463-4159-20865-4291-6204-217-11761-1274-16818-5064-3579-4268-5385-7800-4941-13457 1070-5849 3712-9194 8281-12871 11813-7759 35695-1005 47094 4560" fill="#fdfefe"/></svg>
